<?xml version="1.0" encoding="iso-8859-1"?>
<!-- Generator: Adobe Illustrator 19.0.0, SVG Export Plug-In . SVG Version: 6.00 Build 0)  -->
<svg version="1.1" id="Layer_1" xmlns="http://www.w3.org/2000/svg" xmlns:xlink="http://www.w3.org/1999/xlink" x="0px" y="0px"
	 viewBox="0 0 512 512" style="enable-background:new 0 0 512 512;" xml:space="preserve">
<path style="fill:#77411D;" d="M90.914,413.4c44.571,15.422,102.179,24.721,165.086,24.721C397.384,438.121,512,391.159,512,333.232
	c0-29.641-30.016-56.404-78.26-75.477c3.321,12.846,5.854,23.778,7.564,31.526c0.858,2.024,1.515,4.077,1.953,6.153
	c0.008,0.03,0.012,0.059,0.018,0.087c0.101,0.484,0.193,0.969,0.27,1.452c0.018,0.109,0.03,0.222,0.046,0.329
	c0.061,0.411,0.12,0.823,0.164,1.234c0.026,0.228,0.038,0.464,0.058,0.694c0.025,0.297,0.056,0.594,0.071,0.895
	c0.029,0.537,0.045,1.078,0.045,1.62c0,41.177-84.139,74.561-187.929,74.561s-187.929-33.383-187.929-74.56
	c0-0.542,0.017-1.082,0.046-1.62c0.018-0.301,0.048-0.599,0.071-0.895c0.02-0.231,0.032-0.466,0.058-0.694
	c0.043-0.411,0.104-0.823,0.164-1.234c0.017-0.107,0.028-0.22,0.046-0.329c0.077-0.484,0.169-0.969,0.27-1.452
	c0.007-0.028,0.011-0.057,0.018-0.087c0.439-2.074,1.095-4.128,1.954-6.153c1.71-7.748,4.245-18.679,7.563-31.526
	C30.014,276.829,0,303.592,0,333.233c0,26.955,24.815,51.531,65.593,70.11"/>
<path style="fill:#874F26;" d="M433.74,257.756c3.321,12.846,5.854,23.778,7.564,31.526c0.858,2.024,1.515,4.077,1.953,6.153
	c0.008,0.03,0.012,0.059,0.018,0.087c0.101,0.484,0.193,0.969,0.27,1.452c0.018,0.109,0.03,0.222,0.046,0.329
	c0.061,0.411,0.12,0.823,0.164,1.234c0.026,0.229,0.038,0.464,0.058,0.694c0.025,0.297,0.056,0.594,0.071,0.895
	c0.029,0.537,0.045,1.078,0.045,1.62c0,39.995-79.377,72.633-179.038,74.475c15.615,22.322,34.665,42.065,56.389,58.454
	C431.041,422.848,512,381.915,512,333.232C512,303.592,481.984,276.829,433.74,257.756z"/>
<path style="fill:#945C2B;" d="M448.101,300.645c-0.017-0.307-0.048-0.612-0.072-0.914c-0.021-0.236-0.033-0.477-0.06-0.711
	c-0.043-0.42-0.106-0.842-0.167-1.262c-0.016-0.109-0.028-0.225-0.047-0.337c-0.079-0.494-0.172-0.991-0.275-1.485
	c-0.007-0.028-0.011-0.058-0.019-0.089c-0.447-2.12-1.12-4.22-1.996-6.29c-11.246-50.952-57.295-236.294-127.876-213.793
	c0,0-26.057,10.663-59.22,10.663h-4.737c-33.16,0-59.217-10.663-59.217-10.663C123.831,53.264,77.781,238.606,66.536,289.558
	c-0.878,2.07-1.549,4.169-1.997,6.29c-0.007,0.031-0.012,0.061-0.019,0.089c-0.103,0.494-0.196,0.991-0.275,1.485
	c-0.019,0.111-0.03,0.227-0.047,0.337c-0.062,0.42-0.124,0.842-0.167,1.262c-0.026,0.234-0.039,0.475-0.06,0.711
	c-0.023,0.303-0.056,0.608-0.072,0.914c-0.03,0.55-0.047,1.101-0.047,1.655c0,42.102,86.029,76.235,192.148,76.235
	s192.147-34.132,192.147-76.235C448.147,301.747,448.131,301.194,448.101,300.645z"/>
<path style="fill:#874E23;" d="M86.266,318.795c0-0.592,0.018-1.182,0.05-1.767c0.019-0.329,0.052-0.654,0.078-0.976
	c0.022-0.253,0.035-0.508,0.064-0.759c0.048-0.448,0.113-0.897,0.178-1.346c0.019-0.116,0.031-0.241,0.05-0.359
	c0.084-0.526,0.185-1.056,0.296-1.584c0.004-0.03,0.011-0.062,0.018-0.096c0.479-2.264,1.195-4.504,2.132-6.712
	c10.535-47.738,49.7-206.007,110.074-227.696c-3.085-1.036-4.792-1.733-4.792-1.733C123.831,53.264,77.781,238.606,66.536,289.558
	c-0.878,2.07-1.549,4.169-1.997,6.29c-0.007,0.031-0.012,0.061-0.019,0.089c-0.103,0.494-0.196,0.991-0.275,1.485
	c-0.019,0.111-0.03,0.227-0.047,0.337c-0.062,0.42-0.124,0.842-0.167,1.262c-0.026,0.234-0.039,0.475-0.06,0.711
	c-0.023,0.303-0.056,0.608-0.072,0.914c-0.03,0.55-0.047,1.101-0.047,1.655c0,15.994,12.424,30.833,33.636,43.093
	C90.222,337.057,86.266,328.111,86.266,318.795z"/>
<path style="fill:#A56637;" d="M448.027,299.731c-0.021-0.236-0.033-0.477-0.06-0.711c-0.043-0.42-0.106-0.842-0.167-1.262
	c-0.016-0.109-0.028-0.225-0.047-0.337c-0.079-0.494-0.172-0.991-0.275-1.485c-0.007-0.028-0.011-0.058-0.019-0.089
	c-0.447-2.12-1.12-4.22-1.996-6.29c-11.246-50.952-57.295-236.294-127.876-213.793c0,0-26.057,10.663-59.22,10.663h-0.184
	c-25.741,40.761-40.652,89.048-40.652,140.821c0,56.24,17.593,108.365,47.557,151.2c101.898-1.883,183.056-35.254,183.056-76.147
	c0-0.554-0.016-1.106-0.046-1.655C448.084,300.338,448.053,300.033,448.027,299.731z"/>
<path style="fill:#F7941C;" d="M355.501,303.924c-29.022,6.986-63.077,11.007-99.501,11.007c-85.577,0-158.074-22.198-182.94-52.871
	c-2.806,11.086-4.989,20.545-6.522,27.498c-0.878,2.07-1.549,4.169-1.997,6.29c-0.007,0.031-0.012,0.061-0.019,0.089
	c-0.103,0.494-0.196,0.991-0.275,1.485c-0.019,0.111-0.03,0.227-0.047,0.337c-0.062,0.42-0.124,0.842-0.167,1.262
	c-0.026,0.234-0.039,0.475-0.06,0.711c-0.023,0.303-0.056,0.608-0.072,0.914c-0.03,0.55-0.047,1.101-0.047,1.655
	c0,42.102,86.029,76.235,192.148,76.235s192.147-34.132,192.147-76.235c0-0.554-0.016-1.106-0.046-1.655
	c-0.017-0.307-0.048-0.612-0.072-0.914c-0.021-0.236-0.033-0.477-0.06-0.711c-0.043-0.42-0.106-0.842-0.167-1.262
	c-0.016-0.109-0.028-0.225-0.047-0.337c-0.079-0.494-0.172-0.991-0.275-1.485c-0.007-0.028-0.011-0.058-0.019-0.089
	c-0.447-2.12-1.12-4.22-1.996-6.29c-1.534-6.952-3.719-16.411-6.524-27.498c-10.695,13.193-30.206,24.82-55.778,33.783"/>
<path style="fill:#ED7626;" d="M63.947,304.612c0.031,0.428,0.072,0.854,0.122,1.279c0.023,0.185,0.042,0.37,0.068,0.556
	c0.069,0.505,0.149,1.009,0.243,1.511c0.016,0.082,0.025,0.165,0.041,0.249c0.111,0.573,0.241,1.144,0.383,1.713
	c0.047,0.183,0.098,0.366,0.147,0.547c0.107,0.401,0.223,0.801,0.346,1.201c0.065,0.205,0.126,0.407,0.194,0.612
	c0.14,0.422,0.29,0.844,0.447,1.264c0.056,0.154,0.107,0.305,0.166,0.458c0.211,0.544,0.439,1.083,0.677,1.622
	c0.091,0.206,0.192,0.409,0.286,0.614c0.165,0.356,0.334,0.71,0.513,1.061c0.117,0.235,0.239,0.469,0.361,0.703
	c0.179,0.339,0.367,0.677,0.555,1.015c0.125,0.218,0.246,0.44,0.375,0.659c0.294,0.5,0.601,1.001,0.922,1.499
	c0.158,0.249,0.33,0.495,0.494,0.742c0.193,0.288,0.387,0.575,0.586,0.861c0.192,0.273,0.388,0.546,0.585,0.818
	c0.189,0.259,0.386,0.516,0.581,0.772c0.211,0.279,0.42,0.558,0.641,0.836c0.207,0.259,0.424,0.517,0.635,0.775
	c0.415,0.505,0.843,1.007,1.284,1.507c0.178,0.205,0.359,0.409,0.543,0.613c0.283,0.313,0.575,0.625,0.868,0.937
	c0.174,0.183,0.349,0.366,0.526,0.548c0.317,0.328,0.634,0.655,0.963,0.982c0.068,0.066,0.136,0.132,0.203,0.198
	c0.746,0.732,1.52,1.461,2.322,2.184c0.113,0.1,0.218,0.201,0.332,0.301c0.395,0.351,0.798,0.702,1.206,1.05
	c0.136,0.117,0.274,0.235,0.414,0.351c1.889,1.598,3.917,3.167,6.074,4.703c0.097,0.068,0.194,0.136,0.291,0.206
	c2.222,1.569,4.578,3.104,7.065,4.604c0.07,0.042,0.138,0.084,0.211,0.125c0.615,0.371,1.236,0.738,1.869,1.104
	c-7.265-8.337-11.221-17.283-11.221-26.598c0-0.592,0.018-1.182,0.05-1.767c0.019-0.329,0.052-0.654,0.078-0.976
	c0.022-0.253,0.035-0.508,0.064-0.759c0.048-0.448,0.113-0.897,0.178-1.347c0.019-0.116,0.031-0.241,0.05-0.359
	c0.084-0.526,0.185-1.056,0.296-1.584c0.004-0.03,0.011-0.062,0.018-0.096c0.479-2.264,1.195-4.504,2.132-6.712
	c1.427-6.472,3.385-14.983,5.848-24.899c-9.227-5.611-16.649-11.732-21.92-18.235c-0.004,0.016-0.009,0.029-0.013,0.046
	c-0.34,1.347-0.671,2.67-0.993,3.967c-0.011,0.039-0.02,0.077-0.028,0.116c-0.655,2.633-1.272,5.161-1.848,7.57
	c-0.011,0.049-0.022,0.097-0.035,0.146c-0.27,1.127-0.531,2.225-0.782,3.295c-0.035,0.143-0.066,0.283-0.099,0.425
	c-0.232,0.978-0.454,1.932-0.671,2.86c-0.038,0.173-0.077,0.344-0.117,0.514c-0.21,0.903-0.41,1.782-0.605,2.635
	c-0.036,0.154-0.07,0.308-0.105,0.459c-0.198,0.865-0.388,1.703-0.568,2.515c-0.026,0.116-0.054,0.237-0.079,0.351
	c-0.201,0.9-0.395,1.77-0.577,2.599c-0.878,2.07-1.549,4.169-1.997,6.29c-0.007,0.031-0.012,0.061-0.019,0.089
	c-0.103,0.494-0.196,0.991-0.275,1.485c-0.019,0.111-0.03,0.227-0.047,0.337c-0.062,0.42-0.124,0.842-0.167,1.262
	c-0.026,0.234-0.039,0.475-0.06,0.711c-0.023,0.303-0.056,0.608-0.072,0.914c-0.03,0.55-0.047,1.101-0.047,1.655
	c0,0.594,0.022,1.185,0.056,1.775C63.918,304.256,63.932,304.434,63.947,304.612z"/>
<path style="fill:#F9C33D;" d="M448.027,299.731c-0.021-0.236-0.033-0.477-0.06-0.711c-0.043-0.42-0.106-0.842-0.167-1.262
	c-0.016-0.109-0.028-0.225-0.047-0.337c-0.079-0.494-0.172-0.991-0.275-1.485c-0.007-0.028-0.011-0.058-0.019-0.089
	c-0.447-2.12-1.12-4.22-1.996-6.29c-1.534-6.952-3.719-16.411-6.524-27.498c-10.695,13.193-30.206,24.82-55.778,33.783l-27.66,8.08
	c-29.022,6.986-63.077,11.007-99.501,11.007c-8.039,0-15.963-0.196-23.744-0.576c8.026,22.978,19.133,44.507,32.835,64.093
	c101.898-1.883,183.056-35.254,183.056-76.147c0-0.554-0.016-1.106-0.046-1.655C448.084,300.338,448.053,300.033,448.027,299.731z"
	/>
<g>
</g>
<g>
</g>
<g>
</g>
<g>
</g>
<g>
</g>
<g>
</g>
<g>
</g>
<g>
</g>
<g>
</g>
<g>
</g>
<g>
</g>
<g>
</g>
<g>
</g>
<g>
</g>
<g>
</g>
</svg>
