<svg id="Layer_1" enable-background="new 0 0 504.273 504.273" height="512" viewBox="0 0 504.273 504.273" width="512" xmlns="http://www.w3.org/2000/svg"><g><g><g><path d="m200.563 0c4.143 0 7.5 3.358 7.5 7.5v66.964c0 9.697-15 9.697-15 0v-66.964c0-4.142 3.358-7.5 7.5-7.5z" fill="#7ae1f0"/></g><g><path d="m307.321 0c4.143 0 7.5 3.358 7.5 7.5v66.964c0 9.697-15 9.697-15 0v-66.964c0-4.142 3.357-7.5 7.5-7.5z" fill="#7ae1f0"/></g></g><g><path d="m309.624 130.932c.377-1.654 10.912-47.865 19.233-76.695 0 0-48.885-11.609-70.433 44.925-2.187 5.739-10.388 5.739-12.576 0-21.548-56.534-70.433-44.925-70.433-44.925 8.678 30.144 23.267 74.979 23.824 76.689 8.98 2.76 35.628 10.422 54.676 10.422 20.08.001 46.733-7.651 55.709-10.416z" fill="#6362b5"/><g><path d="m298.177 56.616c-1.541 27.323-6.507 79.237-6.507 79.237 6.795-1.706 14.183-3.76 17.954-4.922.377-1.654 10.912-47.865 19.233-76.695.001.001-14.208-3.367-30.68 2.38z" fill="#4e4fa1"/></g><path d="m397.308 456.251c.099-.028.198-.057.297-.085-12.03-42.073-12.03-42.073 0 0 43.261-12.241 82.837-38.318 82.837-38.318-63.436-150.942-170.829-286.865-170.829-286.865s.004-.02.011-.05c-8.976 2.765-35.629 10.417-55.71 10.417-19.048 0-45.696-7.663-54.676-10.422.011.033.018.056.018.056s-86.483 102.652-175.425 295.766c0 0 169.209 135.973 378.935 47.76 0 0-1.845-6.748-5.161-18.344-.099.028-.198.057-.297.085z" fill="#a0edf7"/><g><path d="m480.442 417.848c-63.436-150.942-170.829-286.865-170.829-286.865s.004-.02.011-.05c-2.911.897-10.216 3.039-17.954 4.922 0 0 94.013 154.248 149.305 285.813 0 0-28.898 16.57-72.159 28.812 3.428 13.167 33.95 24.031 33.95 24.031s-1.845-6.748-5.161-18.344c43.261-12.243 82.837-38.319 82.837-38.319z" fill="#7ae1f0"/></g></g><path d="m317.636 236.773s54.208 234.005 59.546 247.481l25.583-9.744h-.186c.001 0-42.489-135.304-84.943-237.737" fill="#7ae1f0"/></g></svg>