<?xml version="1.0" encoding="utf-8"?>
<!-- Generator: Adobe Illustrator 23.1.0, SVG Export Plug-In . SVG Version: 6.00 Build 0)  -->
<svg version="1.1" id="Layer_1" xmlns="http://www.w3.org/2000/svg" xmlns:xlink="http://www.w3.org/1999/xlink" x="0px" y="0px"
	 viewBox="0 0 1920 1080" style="enable-background:new 0 0 1920 1080;" xml:space="preserve">
<style type="text/css">
	.st0{fill:none;}
	.st1{font-family:'Rod';}
	.st2{font-size:100px;}
	.st3{letter-spacing:30;}
</style>
<g>
	<g>
		<path d="M755.27,862.71c8.7,0.74,17.34-0.03,25.78-1.95c5.75-1.31,10.48-3.65,9.12-11.57c-1.3-7.59,1.77-13.08,10.45-14.23
			c6.35-0.84,8.32-5.68,7.97-11.22c-0.37-6.01-5.49-5.83-9.76-6.08c-25.63-1.48-51.36-1.92-76.84-5.19
			c-11.45-1.47-22.58-0.99-33.83,0.8c-15.02,2.39-29.59-0.64-44.14-3.84c-5.01-1.1-10.05-2.15-15.13-2.74
			c-7.36-0.85-10.8,2.87-9.47,10.08c0.58,3.16,1.61,6.26,2.64,9.33c2.08,6.21-0.97,9.56-6.58,10.4c-5.7,0.85-9.6-2.04-9.6-8.12
			c0-6.74,0.61-13.4-3.25-19.55c-1.32-2.1-2.25-4.45-4.81-5.1c-9.92-2.54-19.83-5.16-29.84-7.25c-3.71-0.78-7.76,0.42-10.78,2.74
			c-8.98,6.88-19.66,9.98-29.94,13.96c-4.88,1.89-9.24,4.57-12.95,8.11c-9.95,9.51-9.87,9.6-22.3,4.08c0-2.16,0-4.32,0-6.48
			c8.25-5.65,16.87-10.56,26.19-14.32c7.5-3.02,14.88-6.4,22.04-10.13c4.05-2.11,8.44-5.12,6.47-10.7
			c-1.9-5.38-6.92-6.56-12.03-6.14c-3.19,0.26-6.28,1.95-9.46,2.08c-5.76,0.23-11.95-1.81-12.69-7.62
			c-0.86-6.67,5.92-6.13,10.6-6.73c1.34-0.17,2.7-0.13,4.05-0.22c6.62-0.43,10.77-3.03,12.35-10.28c1.29-5.93,3.48-12.47,7.39-16.87
			c8.1-9.13,9.46-18.57,6.44-29.9c-1.96-7.38-0.42-15.1,6.28-19.65c11.46-7.77,23.39-14.11,38.49-11.01
			c5.69,1.17,10.41,4.55,16.03,5.13c22.64,2.32,45.27,4.23,67.06-5c7.2-3.05,14.51-5.89,21.63-9.12
			c20.47-9.28,42.2-14.67,63.66-20.96c11.88-3.48,23.21-8.87,35.69-10.3c9.33,0,18.66,0,27.99,0.01c6.65,0.92,13.43,1.29,19.92,2.86
			c28.44,6.87,56.39,6.07,83.9-4.26c3.79,0,7.58,0,11.38,0c7.53,5.57,12.84,13.85,21.78,17.72c6.17,2.67,8.31,7.95,9.01,14.18
			c0.29,2.54-0.23,5.73,3.3,6.64c3.37,0.87,5.66-1.04,7.72-3.35c0.18-0.2,0.37-0.4,0.56-0.59c14.8-14.9,21.99-15.42,39.11-2.98
			c6.06,4.4,8.3,10.76,5.91,17.15c-6.67,17.86-3.88,36.28-4.56,54.49c-0.13,3.5-0.27,7.04,0.01,10.52
			c1.52,18.74-5.91,35.41-12.71,52.01c-4.94,12.07-3.44,19.45,7.92,25.62c10.25,5.56,20.72,10.47,32.61,11.48
			c4.08,0.34,7.14,2.51,8.5,6.5c1.15,3.35-0.82,5.63-3.05,7.77c-3.4,3.26-6.95,2.18-10.45,0.34c-2.38-1.25-4.94-2.39-6.9-4.15
			c-10.91-9.8-24.01-10.93-37.31-8.33c-18.07,3.53-23.39,18.91-28.82,33.7c-0.46,1.24-0.32,2.69-0.68,3.98
			c-1.3,4.74-5.46,5.63-9.4,6.55c-2.36,0.55-5.13,0.82-6.68-1.57c-2.45-3.77,0.68-6.64,2.24-9.58c2.77-5.23,5.86-10.29,8.82-15.42
			c4.36-7.57,3.09-12.38-4.41-16.69c-7.64-4.4-18.96-2.77-25.37,3.24c-3.32,3.11-6.97,5.98-10.86,8.33
			c-4.26,2.57-8.76,1.75-11.39-2.49c-2.77-4.46,1.21-6.89,4.25-9.06c7.64-5.45,17.03-8.25,23.49-15.51c2.49-2.8,6.16-5.42,3.88-9.64
			c-2.08-3.84-6.25-5.21-10.46-4.82c-4,0.37-7.9,1.74-11.89,2.31c-2.87,0.41-6.31,1.07-7.89-2.33c-1.42-3.08,1.06-5.15,3.15-6.76
			c4.3-3.31,4.55-5.66,0.72-10.32c-10.91-13.26-10.5-13.47-25.78-4.37c-10.53,6.28-22.37,9.58-33.94,13
			c-9.34,2.76-12.76,9.05-14.84,17.13c-1.74,6.78-2.94,13.71-4.68,20.49c-3.24,12.63-8.64,24.12-17.25,34.17
			c-8.78,10.25-3.5,26.35,10.93,34.34c3.53,1.96,7.3,3.49,10.96,5.22c-2.65,0.98-5.31,1.95-7.96,2.93
			c-1.65,4.36,3.63,6.38,3.47,10.24c-10.21-6.9-20.45-13.76-30.62-20.72c-17.48-11.98-35.07-13.76-53.62-1.97
			c-9.53,6.06-19.58,10.76-24.06,22.54c-1.92,5.04-8.5,5.18-12.88,2.75c-4.93-2.74-1.37-6.67,0.07-10.42
			c3.48-9.08,10.57-13.62,18.82-17.67c6.61-3.25,13.9-6.21,17.14-13.88c2.81-6.64,0.29-11.67-6.75-13.3
			c-6.22-1.44-12.37-0.05-18.56,0.25c-3.46,0.17-7.01-0.21-10.45-0.78c-7.16-1.19-5.51-4.16-1.28-7.44c3.28-1.5,6.05-6.56,9.49,0.99
			c2.06,4.52,8.66,2.69,13.4,2.28c1.76-0.15,3.3-1.49,2.64-3.24c-1.43-3.82-5.29-3.98-8.59-4.89c-0.16-0.05-0.18-0.61-0.26-0.89
			C745.97,860.06,750.42,863.53,755.27,862.71z M774.37,788.33c2.84-2.02,5.28-4.8,8.89-5.43c14.12-2.46,28.13-5.2,41.94-9.2
			c7.72-2.24,11.84,1.33,12.77,9.29c0.31,2.66,0.52,5.45,0.1,8.07c-3.06,19.15-5.66,38.41-11.32,57.02
			c-3.22,10.6-12.26,15.91-23.65,14.9c-7.65-0.68-15.29-0.41-22.02,3.69c-6.14,3.74-7.5,10.58-5.52,16.31
			c1.98,5.76,7.81,2.39,12.02,1.35c7.17-1.77,14.06-3.75,20.48,2.47c4.51,4.37,8.76,5.53,9.44-3.28c0.14-1.82,2.1-3.69,3.57-5.19
			c13.67-13.87,19.62-31.59,25.15-49.57c3.89-12.64,4.27-25.92,7.67-38.73c3.6-13.52-0.54-18.88-13.76-23.83
			c-5.72-2.14-11.56-2.55-17.52-2.71c-15.83-0.45-30.18,5.38-44.73,10.41c-5.76,0.77-11.68,2.27-14.84,7.22
			c-6.99,10.96-17.26,17.51-28.43,23.1c-2.02,1.01-4.24,1.71-3.76,4.43c0.45,2.53,2.69,3.31,4.92,3.44
			c10.81,0.6,21.79,1.41,32.21-1.89c5.78-1.83,11.89-5.04,14.19-11.22C784.6,792.5,775.71,792.89,774.37,788.33z M993.96,716.63
			c0.67,1.78,1.35,3.56,2.02,5.34c0.86,14.16-5.68,26.7-8.95,39.94c-2.1,8.49-8.79,14.83-14.18,14.44
			c-4.73-0.34-19.57-14.18-19.35-18.86c0.54-11.58,1.29-23.44,5.59-34.17c4.02-10.02,7.77-20.06,10.52-30.46
			c0.74-2.81,3.4-6.25-0.17-8.95c-3.94-2.98-6.44,0.9-9.26,2.54c-1.57,0.91-3.07,2.31-4.01,3.85c-13.2,21.56-21,44.72-20.6,70.25
			c0.08,4.96,1.37,9.32,4.72,13.35c3.32,4,6.45,7.71,11.43,9.9c2.95,1.3,7.16,3.56,5.75,7.6c-1.26,3.6-5.52,2.64-8.67,2.17
			c-3.73-0.56-7.42-1.47-11.08-2.38c-2.01-0.5-4.34-2.5-5.88-0.2c-1.61,2.41,0.64,4.59,2.13,6.39c1.17,1.41,2.69,2.69,4.31,3.54
			c13.96,7.33,27.88,6.47,40.69-2.16c17.21-11.59,25.87-29.45,30.68-48.64c5.49-21.91,8.93-44.33,13.16-66.55
			c1.21-6.37-1.53-11.09-7.04-14.13c-5.83-3.22-11.75-3.06-16.24,2.07c-5.28,6.03-9.87,12.49-13.38,19.98
			c-6.49,13.85-8.83,29.35-17.75,42.24c-3.47,5.02-5.71,11.04-6.26,17.38c-0.36,4.18-0.38,8.31,4.57,10.05
			c5.01,1.76,7.49-1.24,9.52-5.14c5.21-10.02,10.54-19.96,13.36-31.02C990.35,721.94,990.81,718.53,993.96,716.63z M684.36,796.69
			c-2.78,0.89-5.59,1.68-8.32,2.71c-1.92,0.72-4.95,1.14-4.22,3.89c0.62,2.34,3.56,2.4,5.65,1.99c16.23-3.18,32.32-7.02,45.73-17.33
			c4.82-3.7,6.13-10.81,12.12-13.81c1.29-0.64,1.18-2.19,0.01-3.42c-2.74-2.9-14.42-4.18-16.55-1.01
			c-7.16,10.66-18.57,9.7-29.03,11.42c-1.75,0.29-4.24,0.77-5.01-1.45c-0.8-2.3,1.71-3.1,3.14-4.08
			c7.41-5.1,12.89-11.45,13.77-20.78c0.34-3.6,2.56-4.52,5.56-4.32c3.5,0.23,7,0.69,10.48,1.14c18.5,2.42,36.94,5,54.77,10.92
			c4.43,1.47,10.83,2.79,12.79-3.02c1.86-5.53-4.41-7.16-8.19-9.39c-5.31-3.14-11.55-4.52-16.33-8.76
			c-10.28-9.12-19.38-10.01-31.01-3.24c-9.75,5.68-26.87,4.55-35.6-2.36c-18.36-14.54-38.55-15.22-58.1-1.97
			c-9.19,6.23-13.47,24.42-9.37,34.54c3.25,8.03,10.49,11.61,17.45,17.34c-6.36,1.3-10.79,0.76-15.59-0.84
			c-5.84-1.95-9.86-6.44-15.32-8.92c-13.09-5.93-26.72-5.9-40.59-5.51c-8.72,0.25-17.65,0.11-22.06-9.78
			c-0.72-1.62-2.31-2.53-3.98-2.04c-1.95,0.57-1.83,2.52-1.57,4.11c0.66,3.98,1.53,7.75,4.44,11.03
			c8.93,10.05,21.24,11.12,33.24,12.58c21.74,2.63,43.6,4.33,65.31,7.18C660.07,795.09,672.02,796.85,684.36,796.69z M851.36,663.7
			c-18.01-0.54-37.1,2.53-56.06,9.46c-20.44,7.47-40.67,16.01-62.75,18.6c-10.64,1.25-21.25,4-31.11,8.73
			c-2.02,0.97-4.45,2.05-3.47,4.52c0.84,2.13,3.45,0.97,5.12,0.57c19.32-4.71,39.17-4.58,58.78-6.56
			c8.57-0.86,17.35-0.78,22.81-9.57c1.57-2.52,7.1-4.92,8.16-2.05c4.01,10.82,15.52,12.71,22.09,20.28
			c4.99,5.75,12.32,8.82,19.59,8.49c14.95-0.68,29.64-3.84,41.8-13.32c5.86-4.56,12.29-9.94,7.23-18.96
			c-3.4-6.07-0.49-15.21-7.01-18.96c-6.01-3.46-13.82-0.57-20.8-1.25C854.91,663.63,854.1,663.7,851.36,663.7z M859.35,787.8
			c0.28,3.55-3.26,10.02,5.78,10.02c15.69,0.01,36.62-17.3,39.06-32.48c0.84-5.24-0.72-8.96-6.81-9.64
			c-6.96-0.78-13.86-2.22-20.83-2.73c-11.58-0.84-23.18-0.92-34.67,1.37c-2.28,0.45-4.38,1.22-4.64,3.72
			c-0.23,2.16,1.65,3.24,3.37,4.08c1.7,0.82,3.48,1.47,5.21,2.22C857.27,769.31,860.37,774.43,859.35,787.8z M932.31,691.87
			c0.2-6.72-1.24-9.91-5.23-11.62c-6.13-2.62-11.29,1.21-12.48,9.22c-0.41,2.81,0.51,6.81-2.97,7.57c-2.76,0.6-2.41-3.58-4-5.21
			c-1.83-1.87-3.45-4.69-6.6-3.59c-2.86,1-2.25,3.99-2.39,6.31c-0.42,6.98-0.85,13.84-4.42,20.25c-1.77,3.18-1.16,6.27,3.67,6.77
			C913.85,723.21,931.84,707.77,932.31,691.87z M606.19,749.16c7.55,1.2,9.95-1.22,9.37-6.89c-0.33-3.25,0.25-6.39,1.57-9.44
			c0.92-2.14,2.74-4.96,0.14-6.54c-2.48-1.5-5.49,0.17-7.12,2.27c-7.09,9.16-16.71,12.96-27.86,14.08c-3.58,0.36-7.76,1.63-6.88,6.1
			c1.01,5.1,6.09,4.69,9.23,3.07C592.31,747.83,599.93,746.98,606.19,749.16z M743.41,678.38c14.72-4.33,31.33-8.09,45.84-17.51
			c1.3-0.84,2.89-2.14,2.2-3.91c-0.93-2.39-3.24-1.56-4.94-1.14c-11.01,2.72-22.06,5.31-32.93,8.51
			c-5.12,1.51-10.16,3.75-14.26,7.43c-1.37,1.23-3.27,2.46-2.54,4.63C737.56,678.69,739.86,678.01,743.41,678.38z M1021.66,761.42
			c-0.15-3.11,1.08-7.9-2.23-8.65c-3.73-0.84-4.96,3.8-6.2,6.97c-0.2,0.5-0.36,1.02-0.58,1.51c-4.38,9.72-3.99,21.16-11.11,29.98
			c-1.81,2.25-1.22,5.74-0.43,8.65c0.5,1.86,1.53,3.53,3.79,3.65c1.83,0.09,3.17-1.01,3.79-2.55
			C1013.93,788.11,1021.67,776.04,1021.66,761.42z M984,828.71c1.24,4.01-1.42,9.14,2.5,10.89c3.6,1.61,6.3-3.02,9.44-4.82
			c0.46-0.27,0.9-0.62,1.26-1c3.03-3.22,10.45-0.44,10.71-6.63c0.22-5.13-6.52-5.82-8.84-9.82c-1.61-2.77-3.81-5.48-7.74-4.61
			c-4.05,0.9-5.37,4.31-6.23,7.72C984.39,823.27,984.3,826.25,984,828.71z M588.43,693.27c2.84,3.61-2.67,13.21,8.27,12.65
			c8.04-0.41,15.33-5.52,15.23-10.71c-0.1-5.32-7.99-9.62-16.81-9.42C590.55,685.9,587.76,687.4,588.43,693.27z M934.32,656.6
			c-2.72,0.46-8.3-2.2-10.13,1.73c-2.37,5.08,4.52,6.27,6.83,9.58c0.46,0.65,1.12,1.17,1.73,1.7c5.4,4.7,14.25,4.31,19.07-0.83
			c3.34-3.56,2.15-8.56-2.74-10.25C944.72,657.04,940.14,656.41,934.32,656.6z M680.08,695.37c11.22,1.2,15.66-7.37,22.84-10.75
			c1.82-0.86,4.16-2.56,2.83-5.05c-1.09-2.04-3.43-0.5-5.22-0.47c-8.71,0.12-13.27,7.77-20.22,11.1c-1.6,0.77-4.36,0.77-3.86,3.28
			C677.01,696.32,679.89,695.34,680.08,695.37z M632.88,799.85c-7.16-4.35-33.1-7.08-42.56-4.25
			C605.19,800.46,617.97,802.47,632.88,799.85z M962.84,833.8c3.28-0.66,9.13,0.52,8.78-4.79c-0.21-3.2-2.81-9.05-7.93-8.6
			c-4.53,0.4-8.89,3.5-9.04,8.74C954.51,834.18,959.01,833.51,962.84,833.8z M797.71,813.55c4.54-1.19,11.42,0.43,12.05-6.41
			c0.38-4.13-4.95-4.25-8.28-4.15c-4.6,0.13-10.08,0.81-11.01,6.16C789.67,813.77,794.61,812.82,797.71,813.55z M561.32,745.72
			c4.87-1.78,8.25-5.23,8.74-10.9c0.15-1.68-0.53-5.13-2.56-3.39c-3.9,3.33-10.72,3.81-11.52,10.16
			C555.63,744.32,558.14,745.63,561.32,745.72z M938.08,649.04c2.23-1.24,7.26,1.32,7.26-3.43c0-5.12-5.04-3.58-8.15-3.6
			c-3.56-0.02-9.64-0.35-9.48,3.27C927.91,649.84,933.95,648.32,938.08,649.04z M804.99,845.65c-0.33-3.03-0.95-5.66-4.65-5.32
			c-3.83,0.36-4.62,3.13-4.49,6.32c0.12,2.73,0.52,5.89,4.01,5.82C804.07,852.38,804.13,848.46,804.99,845.65z M505.02,816.03
			c-2.3,0.95-6.19,1.05-6.12,5.37c0.05,2.93,2.46,3.84,5.14,3.82c3.75-0.03,6.3-1.92,6.63-5.57
			C510.96,816.41,508.26,816,505.02,816.03z M738.17,921.19c-0.03-2.78-1.1-4.68-4.12-4.94c-3.72-0.32-5.42,1.97-6.07,5.11
			c-0.63,3.08,1.23,4.45,4.07,4.64C735.5,926.23,737.76,924.84,738.17,921.19z M929.85,851.16c2.36-0.51,5.06-2.12,5.48-5.78
			c0.32-2.83-1.78-3.78-4.19-3.24c-3.07,0.68-6.63,1.22-6.7,5.5C924.4,850.37,926.36,851.16,929.85,851.16z M567.14,696.34
			c-4.47,4.48-3.96,9-3.55,13.46c0.13,1.41,0.91,2.75,2.45,2.71c1.59-0.04,2.16-1.48,2.2-2.89
			C568.37,705.62,568.93,701.59,567.14,696.34z M609.26,828.32c0.38,2.37,1.84,4.13,4.58,4.51c2.6,0.36,4.21-1.09,4.53-3.52
			c0.41-3.1-1.71-4.32-4.39-4.63C611.55,824.4,609.75,825.29,609.26,828.32z M1053.89,850.92c1.9-0.7,4.92-0.59,4.88-3.93
			c-0.04-3.24-2.68-3.72-5.19-3.65c-2.63,0.07-5.07,1.29-4.85,4.17C1048.9,849.84,1051.19,850.8,1053.89,850.92z M969.96,881.87
			c2.12-0.38,4.26-1.4,4.4-4.36c0.13-2.88-1.87-3.59-4.27-3.47c-2.72,0.14-4.73,1.45-4.85,4.31C965.12,881.1,967,882,969.96,881.87z
			 M524.08,770.54c-1.93-0.02-3.68,0.36-3.65,2.43c0.02,2.22,1.66,3.36,3.82,3.27c1.67-0.07,3.5-0.82,3.62-2.6
			C528.04,771.16,525.74,770.96,524.08,770.54z"/>
		<path d="M830,635.77c0.05,0.47,0.11,0.93,0.18,1.4c-9.33,0-18.66,0-27.99-0.01c0.07-0.46,0.13-0.93,0.19-1.39
			C811.59,635.77,820.79,635.77,830,635.77z"/>
		<path d="M854.42,927.89c0.14-9.55-0.53-10.15-11.43-10.28c2.65-0.98,5.31-1.95,7.96-2.93c4.14,0.18,7.37,2.09,8.54,6.01
			C860.69,924.72,856.65,925.85,854.42,927.89z"/>
		<path d="M993.96,716.63c1.31-4.53,2.63-9.06,3.94-13.59c1.5,6.68-0.36,12.78-1.92,18.93
			C995.31,720.19,994.63,718.41,993.96,716.63z"/>
		<path d="M658.76,777.08c-18.27,2.25-27.42-12.27-25.38-23.09c1.36-7.21,13.61-18.33,22.84-19.44c5.29-0.64,10.84-0.51,16.1,0.36
			c7.31,1.2,13.27,4.82,14.5,13.03c1.22,8.24,1.2,16.18-6.45,21.91C673.71,774.83,666.68,778.47,658.76,777.08z M657.8,775.35
			c7.36-1.46,14.87-1.44,20.14-7.6c1.04-1.22,2.69-2.21,1.74-4.02c-1.1-2.11-3.39-2.05-4.91-1.06c-6.69,4.36-14.04,4.93-21.69,4.58
			c-1.75-0.08-4.14-0.37-4.38,2.3c-0.19,2.12,1.42,3.54,3.15,4.27C653.78,774.63,655.94,774.9,657.8,775.35z M666.59,744.71
			c0.12,0,1.53,0.26,2.81-0.06c2.21-0.55,6.13,2.53,6.37-2.11c0.17-3.3-3.25-4.03-5.92-4.37c-7.98-1.02-15.66-0.25-22.56,4.44
			c-1.31,0.89-3.33,1.43-2.8,3.37c0.57,2.1,2.66,1.57,4.09,1.13C654.07,745.42,659.61,744.42,666.59,744.71z"/>
	</g>
	<rect x="393.72" y="838.03" class="st0" width="377.28" height="164.97"/>
	<text transform="matrix(1 0 0 1 393.7246 899.334)" class="st1 st2 st3">SAPO</text>
</g>
</svg>
