<svg height="512pt" viewBox="-94 0 512 512" width="512pt" xmlns="http://www.w3.org/2000/svg"><path d="m298.402344 43.667969h-273.75v-38.496094c0-2.855469 2.316406-5.171875 5.171875-5.171875h263.40625c2.855469 0 5.171875 2.316406 5.171875 5.171875zm0 0" fill="#e8dacd"/><path d="m298.402344 43.667969h-30.644532v-43.667969h25.472657c2.855469 0 5.171875 2.316406 5.171875 5.171875zm0 0" fill="#e5ccb7"/><path d="m99.34375 512h-76.652344c-6.96875 0-12.613281-5.648438-12.613281-12.613281v-30.386719h101.878906v30.386719c0 6.964843-5.648437 12.613281-12.613281 12.613281zm0 0" fill="#e8dacd"/><path d="m301.730469 512h-76.652344c-6.964844 0-12.609375-5.648438-12.609375-12.613281v-30.386719h101.878906v30.386719c0 6.964843-5.648437 12.613281-12.617187 12.613281zm0 0" fill="#e8dacd"/><path d="m314.34375 469v30.382812c0 6.96875-5.648438 12.613282-12.617188 12.613282h-21.984374c6.957031 0 12.601562-5.644532 12.601562-12.613282v-30.382812zm0 0" fill="#e5ccb7"/><path d="m111.957031 469v30.382812c0 6.96875-5.648437 12.613282-12.613281 12.613282h-21.988281c6.957031 0 12.605469-5.644532 12.605469-12.613282v-30.382812zm0 0" fill="#e5ccb7"/><path d="m319.226562 88.105469-20.761718-50.855469h-273.875l-20.765625 50.855469c-2.523438 6.1875-3.824219 12.808593-3.824219 19.492187v357.378906c0 6.101563 4.945312 11.042969 11.042969 11.042969h99.445312c6.097657 0 11.042969-4.941406 11.042969-11.042969l15.480469-109.453124 23.4375-181.210938c.164062-1.257812 1.988281-1.257812 2.152343 0l23.4375 181.210938 15.480469 109.453124c0 6.101563 4.945313 11.042969 11.042969 11.042969h99.445312c6.101563 0 11.042969-4.941406 11.042969-11.042969v-357.378906c0-6.683594-1.296875-13.304687-3.824219-19.492187zm0 0" fill="#f79341"/><path d="m323.054688 107.605469v357.375c0 6.101562-4.945313 11.042969-11.046876 11.042969h-19.664062v-366.355469c0-6.6875-1.300781-13.304688-3.828125-19.5l-20.757813-52.921875h30.707032l20.757812 50.859375c2.53125 6.191406 3.832032 12.808593 3.832032 19.5zm0 0" fill="#ef7e29"/><path d="m206.6875 125.175781h-12.386719c-4.558593 0-8.257812-3.695312-8.257812-8.257812v-90.90625c0-1.140625.925781-2.0625 2.066406-2.0625h24.773437c1.140626 0 2.066407.921875 2.066407 2.0625v90.90625c-.003907 4.5625-3.699219 8.257812-8.261719 8.257812zm0 0" fill="#28c6db"/><path d="m128.753906 125.175781h-12.386718c-4.5625 0-8.257813-3.695312-8.257813-8.257812v-90.90625c0-1.140625.921875-2.0625 2.0625-2.0625h24.773437c1.140626 0 2.066407.921875 2.066407 2.0625v90.90625c0 4.5625-3.699219 8.257812-8.257813 8.257812zm0 0" fill="#28c6db"/><g fill="#17b5c1"><path d="m128.753906 125.175781h-6.195312v-101.226562h12.386718c1.140626 0 2.066407.921875 2.066407 2.0625v90.90625c0 4.5625-3.699219 8.257812-8.257813 8.257812zm0 0"/><path d="m206.6875 125.175781h-6.191406v-101.226562h12.386718c1.140626 0 2.066407.921875 2.066407 2.0625v90.90625c-.003907 4.5625-3.699219 8.257812-8.261719 8.257812zm0 0"/></g></svg>