<svg id="Capa_1" enable-background="new 0 0 512 512" height="512" viewBox="0 0 512 512" width="512" xmlns="http://www.w3.org/2000/svg"><path d="m501.698 415.966s-24.331-74.911-155.218-125.388c-2.389-.921-5.042-.901-7.427.031-35.724 13.968-76.37 4.047-101.642-24.807l-180.518-206.109c-2.732-3.119-7.073-4.329-10.998-2.991-14.483 4.936-45.895 27.319-45.895 128.62l.004 16.978 20.121 5.09c30.252 7.653 57.69 23.783 79.09 46.493l116.863 124.018c33.367 35.41 79.866 55.485 128.521 55.485h157.099z" fill="#fb4a59"/><path d="m501.698 415.966v17.42h-157.102c-48.655 0-95.148-20.078-128.515-55.486l-42.701-45.307c7.716-2.277 18.008.793 31.451 10.827 59.39 44.308 132.347 55.826 184.351 57.494 28.711.927 62.209-18.073 18.44-52.879-27.044-21.506-61.059-38.652-88.616-52.117 6.758-.979 13.485-2.74 20.047-5.306 2.39-.937 5.038-.958 7.428-.031 130.884 50.47 155.217 125.385 155.217 125.385z" fill="#f82f40"/><path d="m512 429.362c0 14.618-11.857 26.476-26.486 26.476h-141.743c-50.881 0-99.052-22.169-132.152-60.822l-105.552-123.292c-.113-.134-.227-.268-.34-.402-18.481-21.387-53.394-14.258-62.223 12.589-6.191 18.811-9.436 38.652-9.436 58.834v102.791c0 5.69-4.612 10.302-10.302 10.302h-13.464c-5.69 0-10.302-4.613-10.302-10.302v-257.123l30.905 3.894c40.136 5.027 76.759 24.745 103.101 55.496l105.552 123.292c26.105 30.483 64.088 47.965 104.213 47.965h157.927c2.843 0 5.419 1.154 7.283 3.018s3.019 4.441 3.019 7.284z" fill="#e22334"/><path d="m512 429.362c0 14.618-11.857 26.476-26.486 26.476h-45.019c25.322-9.581 34.326-25.095 37.375-36.777h23.828c2.843 0 5.419 1.154 7.283 3.018s3.019 4.44 3.019 7.283z" fill="#c21d2c"/></svg>